<svg width="16" height="16" viewBox="0 0 16 16" fill="none" xmlns="http://www.w3.org/2000/svg">
<path d="M12 6L6 12L3 9" stroke="white" stroke-width="2" stroke-linecap="round" stroke-linejoin="round"/>
<path d="M0 8.63086C0 8.04102 0.0507812 7.49023 0.152344 6.97852C0.253906 6.46289 0.408203 5.95703 0.615234 5.46094C0.822266 4.96094 1.07812 4.46094 1.38281 3.96094C1.56641 3.65625 1.7207 3.4375 1.8457 3.30469C1.9707 3.16797 2.08789 3.08398 2.19727 3.05273C2.31055 3.01758 2.45508 3 2.63086 3C2.82227 3 2.91797 3.05273 2.91797 3.1582C2.91797 3.19336 2.82812 3.40625 2.64844 3.79688C2.46875 4.18359 2.29883 4.58984 2.13867 5.01562C1.98242 5.44141 1.83594 5.97266 1.69922 6.60938C1.56641 7.24609 1.5 7.91992 1.5 8.63086C1.5 9.33398 1.56641 10 1.69922 10.6289C1.83203 11.2578 1.98242 11.8027 2.15039 12.2637C2.32227 12.7246 2.49219 13.1367 2.66016 13.5C2.83203 13.8672 2.91797 14.0664 2.91797 14.0977C2.91797 14.2031 2.82227 14.2559 2.63086 14.2559C2.45117 14.2559 2.30469 14.2363 2.19141 14.1973C2.08203 14.1621 1.9668 14.0762 1.8457 13.9395C1.72461 13.8027 1.57031 13.584 1.38281 13.2832C1.07422 12.7676 0.818359 12.2695 0.615234 11.7891C0.416016 11.3125 0.263672 10.8164 0.158203 10.3008C0.0527344 9.78516 0 9.22852 0 8.63086Z" fill="white"/>
<path d="M15.918 8.625C15.918 9.21484 15.8672 9.76562 15.7656 10.2773C15.6641 10.793 15.5098 11.2988 15.3027 11.7949C15.0957 12.2949 14.8398 12.7949 14.5352 13.2949C14.3516 13.5996 14.1973 13.8184 14.0723 13.9512C13.9473 14.0879 13.8301 14.1719 13.7207 14.2031C13.6074 14.2383 13.4629 14.2559 13.2871 14.2559C13.0957 14.2559 13 14.2031 13 14.0977C13 14.0625 13.0898 13.8496 13.2695 13.459C13.4492 13.0723 13.6191 12.666 13.7793 12.2402C13.9355 11.8145 14.082 11.2832 14.2188 10.6465C14.3516 10.0098 14.418 9.33594 14.418 8.625C14.418 7.92187 14.3516 7.25586 14.2188 6.62695C14.0859 5.99805 13.9355 5.45312 13.7676 4.99219C13.5957 4.53125 13.4258 4.11914 13.2578 3.75586C13.0859 3.38867 13 3.18945 13 3.1582C13 3.05273 13.0957 3 13.2871 3C13.4668 3 13.6133 3.01953 13.7266 3.05859C13.8359 3.09375 13.9512 3.17969 14.0723 3.31641C14.1934 3.45312 14.3477 3.67187 14.5352 3.97266C14.8438 4.48828 15.0996 4.98633 15.3027 5.4668C15.502 5.94336 15.6543 6.43945 15.7598 6.95508C15.8652 7.4707 15.918 8.02734 15.918 8.625Z" fill="white"/>
</svg>
