<svg width="16" height="16" viewBox="0 0 16 16" fill="none" xmlns="http://www.w3.org/2000/svg">
<path d="M14.5 8L8.5 14L6.5 12" stroke="#E0491C" stroke-width="2" stroke-linecap="round" stroke-linejoin="round"/>
<path d="M1.40728 8.91546L1.0894 4.48613C1.0298 3.62307 1 3.00352 1 2.62748C1 2.11581 1.14238 1.71819 1.42715 1.43461C1.71854 1.14487 2.09934 1 2.56954 1C3.13907 1 3.51987 1.18494 3.71192 1.55482C3.90397 1.91854 4 2.44562 4 3.13606C4 3.54293 3.97682 3.95597 3.93046 4.37517L3.50331 8.93395C3.45695 9.47644 3.35762 9.89256 3.2053 10.1823C3.05298 10.472 2.80132 10.6169 2.45033 10.6169C2.09272 10.6169 1.84437 10.4782 1.7053 10.2008C1.56623 9.91722 1.46689 9.48877 1.40728 8.91546ZM2.50993 15C2.10596 15 1.75166 14.8798 1.44702 14.6394C1.14901 14.3928 1 14.0506 1 13.6129C1 13.2307 1.14238 12.9071 1.42715 12.642C1.71854 12.3708 2.07285 12.2351 2.49007 12.2351C2.90728 12.2351 3.26159 12.3708 3.55298 12.642C3.85099 12.9071 4 13.2307 4 13.6129C4 14.0445 3.85099 14.3835 3.55298 14.6301C3.25497 14.8767 2.90728 15 2.50993 15Z" fill="#E0491C"/>
</svg>
